<svg xmlns="http://www.w3.org/2000/svg" xmlns:xlink="http://www.w3.org/1999/xlink" viewBox="0,0,256,256" width="24px" height="24px" fill-rule="nonzero"><g fill="#ffffff" fill-rule="nonzero" stroke="none" stroke-width="1" stroke-linecap="butt" stroke-linejoin="miter" stroke-miterlimit="10" stroke-dasharray="" stroke-dashoffset="0" font-family="none" font-weight="none" font-size="none" text-anchor="none" style="mix-blend-mode: normal"><g transform="scale(10.66667,10.66667)"><path d="M21.71,18.296c-0.017,-0.018 -1.71,-1.77 -1.71,-4.296v-3c0,-4.072 -3.06,-7.436 -7,-7.931v-1.069c0,-0.552 -0.448,-1 -1,-1c-0.552,0 -1,0.448 -1,1v1.069c-3.94,0.495 -7,3.859 -7,7.931v3c0,2.526 -1.693,4.278 -1.707,4.293c-0.286,0.286 -0.372,0.716 -0.217,1.09c0.155,0.373 0.52,0.617 0.924,0.617h6c0,1.657 1.343,3 3,3c1.657,0 3,-1.343 3,-3h6c0.403,0 0.765,-0.243 0.92,-0.615c0.157,-0.371 0.073,-0.802 -0.21,-1.089z"></path></g></g></svg>