<svg xmlns="http://www.w3.org/2000/svg" xmlns:xlink="http://www.w3.org/1999/xlink" viewBox="0,0,256,256" width="32px" height="32px" fill-rule="nonzero"><g fill="#3365f0" fill-rule="nonzero" stroke="none" stroke-width="1" stroke-linecap="butt" stroke-linejoin="miter" stroke-miterlimit="10" stroke-dasharray="" stroke-dashoffset="0" font-family="none" font-weight="none" font-size="none" text-anchor="none" style="mix-blend-mode: normal"><g transform="scale(8,8)"><path d="M2,5v22h28v-22zM4,7h24v13.90625l-5.28125,-5.3125l-0.71875,-0.71875l-4.53125,4.53125l-5.75,-5.8125l-0.71875,-0.71875l-7,7zM24,9c-1.10547,0 -2,0.89453 -2,2c0,1.10547 0.89453,2 2,2c1.10547,0 2,-0.89453 2,-2c0,-1.10547 -0.89453,-2 -2,-2zM11,15.71875l9.1875,9.28125h-16.1875v-2.28125zM22,17.71875l6,6v1.28125h-4.96875l-4.15625,-4.1875z"></path></g></g></svg>